<svg width="32" height="32" viewBox="0 0 32 32" fill="none" xmlns="http://www.w3.org/2000/svg">
<rect width="32" height="32" rx="16" fill="#D1FADF"/>
<g clip-path="url(#clip0_1076_434)">
<path d="M22.6667 15.3867V16C22.6658 17.4376 22.2003 18.8364 21.3395 19.9879C20.4788 21.1393 19.2688 21.9816 17.8902 22.3893C16.5116 22.7969 15.0382 22.7479 13.6896 22.2497C12.3411 21.7515 11.1897 20.8307 10.4073 19.6247C9.62482 18.4187 9.25317 16.992 9.34776 15.5575C9.44235 14.123 9.99812 12.7575 10.9322 11.6647C11.8662 10.5719 13.1285 9.81025 14.5308 9.49343C15.933 9.1766 17.4002 9.32155 18.7133 9.90666M22.6667 10.6667L16 17.34L14 15.34" stroke="#039855" stroke-width="1.33333" stroke-linecap="round" stroke-linejoin="round"/>
</g>
<defs>
<clipPath id="clip0_1076_434">
<rect width="16" height="16" fill="white" transform="translate(8 8)"/>
</clipPath>
</defs>
</svg>
