<svg xmlns="http://www.w3.org/2000/svg" width="75" height="104" fill="none"><g filter="url(#a)"><path fill="#5096FF" d="M4 10v86h17.795V48.574L52 70.444l-3.327-27.586L18.97 21.593 4 10Z"/></g><g filter="url(#b)"><path fill="#5096FF" d="M48.853 19h20.794c.994 0 1.38 1.292.548 1.837l-.844.552a1 1 0 0 0-.444.71L60.03 91.015c-.151 1.168-1.845 1.16-1.985-.009l-8.238-68.859a1 1 0 0 0-.506-.755l-.934-.52c-.9-.5-.545-1.873.487-1.873Z"/></g><path fill="#5096FF" d="M71 10.957C71 17.006 68.53 20 59 20s-12-2.992-12-9.043C47 4.905 52.373 0 59 0s12 4.905 12 10.957Z"/><defs><filter id="a" width="56" height="94" x="0" y="10" color-interpolation-filters="sRGB" filterUnits="userSpaceOnUse"><feFlood flood-opacity="0" result="BackgroundImageFix"/><feColorMatrix in="SourceAlpha" result="hardAlpha" values="0 0 0 0 0 0 0 0 0 0 0 0 0 0 0 0 0 0 127 0"/><feOffset dy="4"/><feGaussianBlur stdDeviation="2"/><feComposite in2="hardAlpha" operator="out"/><feColorMatrix values="0 0 0 0 0 0 0 0 0 0 0 0 0 0 0 0 0 0 0.25 0"/><feBlend in2="BackgroundImageFix" result="effect1_dropShadow_1076_413"/><feBlend in="SourceGraphic" in2="effect1_dropShadow_1076_413" result="shape"/></filter><filter id="b" width="30.798" height="80.888" x="43.851" y="19" color-interpolation-filters="sRGB" filterUnits="userSpaceOnUse"><feFlood flood-opacity="0" result="BackgroundImageFix"/><feColorMatrix in="SourceAlpha" result="hardAlpha" values="0 0 0 0 0 0 0 0 0 0 0 0 0 0 0 0 0 0 127 0"/><feOffset dy="4"/><feGaussianBlur stdDeviation="2"/><feComposite in2="hardAlpha" operator="out"/><feColorMatrix values="0 0 0 0 0 0 0 0 0 0 0 0 0 0 0 0 0 0 0.25 0"/><feBlend in2="BackgroundImageFix" result="effect1_dropShadow_1076_413"/><feBlend in="SourceGraphic" in2="effect1_dropShadow_1076_413" result="shape"/></filter></defs></svg>