<svg width="221" height="313" viewBox="0 0 221 313" fill="none" xmlns="http://www.w3.org/2000/svg">
<path d="M0 32.3197V310.301H57.5193V215.597V157.003L155.152 227.694L144.399 138.53L48.3891 69.7927L0 32.3197Z" fill="#F3F8FF"/>
<path d="M136.381 61.4127L219.682 61.4127C220.675 61.4127 221.061 62.705 220.23 63.2493L210.38 69.6988C210.136 69.8588 209.974 70.1178 209.936 70.4076L178.81 312.016C178.66 313.185 176.965 313.177 176.825 312.007L147.929 70.4577C147.891 70.1394 147.703 69.8587 147.423 69.7028L135.895 63.2865C134.994 62.7849 135.35 61.4127 136.381 61.4127Z" fill="#F3F8FF"/>
<path d="M216.566 35.4152C216.566 54.9745 208.58 64.6468 177.778 64.6468C146.975 64.6468 138.99 54.9745 138.99 35.4152C138.99 15.8559 156.356 0 177.778 0C199.2 0 216.566 15.8559 216.566 35.4152Z" fill="#F3F8FF"/>
</svg>
