<svg xmlns="http://www.w3.org/2000/svg" fill="none" viewBox="0 0 100 100"><g clip-path="url(#a)"><mask id="b" width="100" height="100" x="0" y="0" maskUnits="userSpaceOnUse" style="mask-type:luminance"><path fill="#fff" d="M100 0H0v100h100V0Z"/></mask><g mask="url(#b)"><path fill="url(#c)" d="M88 0H12C5.373 0 0 5.427 0 12.121v75.626c0 6.694 5.373 12.121 12 12.121h76c6.627 0 12-5.427 12-12.121V12.121C100 5.427 94.627 0 88 0Z"/><g filter="url(#d)"><path fill="#5096FF" d="M26 22.178v60.43h12.38V49.284L59.39 64.65l-2.314-19.383-20.663-14.943L26 22.178Z"/></g><g filter="url(#e)"><path fill="#5096FF" d="M57.858 28.502h13.193c.874 0 1.213 1.149.482 1.632a.89.89 0 0 0-.391.63l-5.853 45.888c-.15 1.18-1.844 1.172-1.984-.009l-5.43-45.841a.875.875 0 0 0-.438-.66c-.78-.44-.472-1.64.421-1.64Z"/></g><path fill="#5096FF" d="M72.609 22.85c0 4.252-1.719 6.355-8.348 6.355-6.63 0-8.348-2.103-8.348-6.355 0-4.252 3.738-7.699 8.348-7.699 4.61 0 8.348 3.448 8.348 7.7Z"/></g></g><defs><filter id="d" width="41.391" height="68.43" x="22" y="22.178" color-interpolation-filters="sRGB" filterUnits="userSpaceOnUse"><feFlood flood-opacity="0" result="BackgroundImageFix"/><feColorMatrix in="SourceAlpha" result="hardAlpha" values="0 0 0 0 0 0 0 0 0 0 0 0 0 0 0 0 0 0 127 0"/><feOffset dy="4"/><feGaussianBlur stdDeviation="2"/><feComposite in2="hardAlpha" operator="out"/><feColorMatrix values="0 0 0 0 0 0 0 0 0 0 0 0 0 0 0 0 0 0 0.25 0"/><feBlend in2="BackgroundImageFix" result="effect1_dropShadow_15_252"/><feBlend in="SourceGraphic" in2="effect1_dropShadow_15_252" result="shape"/></filter><filter id="e" width="22.941" height="57.031" x="52.991" y="28.502" color-interpolation-filters="sRGB" filterUnits="userSpaceOnUse"><feFlood flood-opacity="0" result="BackgroundImageFix"/><feColorMatrix in="SourceAlpha" result="hardAlpha" values="0 0 0 0 0 0 0 0 0 0 0 0 0 0 0 0 0 0 127 0"/><feOffset dy="4"/><feGaussianBlur stdDeviation="2"/><feComposite in2="hardAlpha" operator="out"/><feColorMatrix values="0 0 0 0 0 0 0 0 0 0 0 0 0 0 0 0 0 0 0.25 0"/><feBlend in2="BackgroundImageFix" result="effect1_dropShadow_15_252"/><feBlend in="SourceGraphic" in2="effect1_dropShadow_15_252" result="shape"/></filter><linearGradient id="c" x1="100" x2=".132" y1="0" y2="100" gradientUnits="userSpaceOnUse"><stop stop-color="#F5F5F5"/><stop offset="1" stop-color="#D3E4FE"/></linearGradient><clipPath id="a"><path fill="#fff" d="M0 0h100v100H0z"/></clipPath></defs></svg>